<svg t="1783930706416" class="icon" viewBox="0 0 1024 1024" version="1.1" xmlns="http://www.w3.org/2000/svg" p-id="9583" width="200" height="200"><path d="M146.85 695.22c-1.6 2.9-0.42-1.85-2.46-0.28 1.11 1.79 0.47 4.34-1.45 3.36 0.73-2.91-0.18-4.29 1.75-6.21-0.58 0.25-0.75-0.22-1.23-0.14-1.67 0.76-1 4.26-2.69 3.22 1-3.67 4.4-5.83 5-9.68-0.46-0.75-2.24 0.88-2.46-0.28 1.86-0.49 1.09-2.57 3.34-2.82 0.17 0.71 0.1 1.88 0.79 1.69 1.08-1.71 2.38-6.49 0.55-6.35 1.82-0.3 1.59-1.85 3.41-2.16 0.74 2.48-2.66 2.43-1.91 4.9 2.76-2.21 2.47-3.27 6.24-4.07a4.16 4.16 0 0 1 0.38-2.19c-1.26-0.58-0.73 0.38-2.32 1-0.08-1.12-0.62-1.46-1.36-1.44-0.39-2.25 1.49-3.12 1.27-5.3-2-0.29-2.47 4.32-2.9 1.27 1.53-2.32 4.31-7.07 5.94-7.29-1.27 0.64-1.09 2.17-0.84 3.73 3.69-2.08 4.35-8.24 7-9.06 0-1.19-0.72-1.27-1.86-0.55-0.61-2.4 0.53-3.73 1.3-5.28 4.4-1.72 5.84-7.2 7.92-12.75 0.45 1-1.47 3.41 0.29 3.24 2.41-0.92 0.93-4.3 2.52-5.74 0.68 0.34 0.39 2.31 1.92 1.21-0.07-0.86-0.15-1.73-0.22-2.58 3.89-1.61 1.46-7.25 3.38-10.11 3.63-0.87 5.31-7 3-7.92-0.44 0.62-0.42 4.53-1.61 2.66 1.76-1.38-1.73 0.07-1.33-1.48 1.62-1 3-2.18 4.61-3.18 0.63 3.07 0.5 2.65-0.19 5.42 3.73-3.22 6.29-8.33 5.81-11 0.3 1.13 3-1.26 3.49-2-2.13-2 2.85-3.59 3.19-5.91-0.59-0.34-1.54-3.65-0.3-4.55 0.83 0.82 1.39 2.08 3.12 1.45-0.27-3.87 3.71-1.91 3.19-6.54-1.13 1.78-1.19 0.19-1.85-0.61 1.74-2.06 3.87-6.56 4-2.87 0.52-3.34 2.25-8.6 6-11.52 0-0.86-0.09-1.74-0.13-2.6 2.27-1.9 0.35 2.73 1.9 1.94 1.94-3.89 1.32-6.46 4.32-10.17-1.85 0.19-1.06 2.19-2.91 2.38 1.81-1.9 3-7.52 5.11-7.12-0.82 0.35-2.2 3.37-1.07 3 1.33-2 3.49-3.41 3.32-6.47-1 0.94-1.74 2.84-2.37 0.85 1.45-1.21 1.76-3.61 2.94-1.71-1.61-2.13 0.62-2.68 1-5-1.39 0.71-2.2 1.81-4.15 2.13 0.31 1.47-1.05 1.79-0.46 3.46-6.18 0.32-5.3 10.41-11.48 12.78-0.27 3.58-4.75 4.28-4.4 8.28-3.63 4.2-7.15 8.49-9.46 13.59-0.63-0.65-2-0.07-2.48-1-0.63 1.24-2.41 1.73-2.2 3.53-2.21 1.16-2.86-0.2-4.26-0.34 0.12 1.74 0 3.81 0.9 4.33a7.5 7.5 0 0 1-4.63 3.17c0.43 1.54 0.95 2-0.36 3.49-1.46-1.42 0.58-4.33-1.5-4.09-0.5 1.75-1.17 5.27-3.34 4 0.21 1.58-0.78 2.38-0.94 3.74 1.31 0 2.2 0.76 2.06 3.18-2 0.81 0-1.72-2.51-1-0.32 3.59-3.2 3.72-4.88 7.37 0-3.16 0.48-3.58-1.54-4.08 1.29-0.41 0.09-2.43 0.34-3.51 1.7-1.18 2.39-3 3.3-4.69 0.88 1.3-1.53 3.4 0.24 3.25-0.43-3 4.28-3 2-5.51 3.47-2.15 4.9-3.86 8-7.21a3.18 3.18 0 0 0-0.76-2.37c0.7-0.36 1.38-0.75 1.08-1.78 2-1.84 0.51 2.08 1.9 1.26 1.91-1.42 1.85-3.42 0.35-4.14 1.64-1.19 1.58 0.32 3-0.5 1.92-2.92 0.53-4.92 5-6.63-0.08-1.29-1.66-0.21-1.33-2.15 2.25-2.25 2.68-2.48 0.48-2.19 0.56-1.5 2.68-2 3.45-3.31 1-6.14 6.6-8.39 9.07-12-0.25-2.43 0.35-6.11-2-5.21 0.14 1.59 1.21 1.6 0.14 3.25-1.88 1.53-0.56-1.94-2.44-0.42-4.56 6.56-9 13.21-14.77 18.95-0.67-2.33 1.32-2.89 1.56-4.61-1.11-1.46-2.32 1.14-2.48-1.05a2.34 2.34 0 0 1 1.82 0c0.72-3.42 0-4.33 1.47-6.58-1.27 3.18 1 1.25 1.4 3.48-0.89 0.45-2.21 0.6-2.35 1.57 0.93 0.43 0.84 2.46 2.52 1.71-2.55-1.8 1.48-2 1.53-5.27-1.88 0.78-1-3-0.79-3.7 3.23-3.31 7.42-15.21 11.43-16.24-0.3-1.17-2.34 0.33-1.89-2 4.14-0.74 4.2-1.73 6.51-4.37-1.1 2.37 0.91 2.94-1.07 4.36-0.09-0.77-0.23-1.47-1.24-0.87 0 1.17-0.92 3.63 0.17 4.59 0.33-2.17 6.13-6.78 2.68-10.25 1.55-1.26 1.93-3.33 3.49-4.57 0.73 2.26-1.46 4.65 0.74 4.37 2-0.9 0.31-4.47 2.26-5.43-3.6-1.18 3.1-6.43 1.62-8.49 1.48 0.37 0.4 1.17 1.24 1.54 1.45-0.84 3.06-2.94 1.74-3.9 2.64-0.59 1.24-2.45 3.6-1.89 0.85-2.18 1.63-4.43-0.08-5.24 1.09-2.45 2.07 1.51 3-1-1.22-0.64-1.55-2.21 1.16-4.34 1-0.32 0.36 1.7 1.23 1.56 1.2-1.73-0.28-1.2-0.62-2.42 1.14-0.23 1.33-1.18 2.42-1.46 1.9 0.59-2 2.89 0 3.28 2.44-1.83 3.06-5.61 0.58-6.1 2.55-0.09 6-1.9 3.61-3.81 1.25-1.71 1.19-0.09 2.43-0.13 2.91-6.22 6.33-8 8.59-14.46 1.94-1.15 1.86 0.46 3 0.38 1.55-3.45 0.53-6.73 3.73-6.35 0-2.8 2.36-3.72 2-5.12 0.08 0.74 0.94 0.43 1.81 0.12-0.19-1.7 2.62-10.3 5.08-8 0.33-3.25 2-6.91 1.55-8.86 4.89-0.49 8.55-11.83 9.45-7.09 2.38-1.44-0.53-3.13 2.63-3.93 2-0.32-2.52 2.65-0.15 2.62 2-1.42 5.53-5.13 2.82-6.51-0.34 1.14-2.86 3.88-3.21 2.75 2.79-2.63 5.51-6.73 8.35-7.27 0.91-2.31-2 0-1.05-2.31 3-1 1.57-1.88 3.31-3.36-1.54 0.46-3 0.82-3.67 0.24-0.73 2.17-1.64 4.14-4.57 4.36 0.43-2.17 3.25-2.25 3.37-4.71 2.7-1.5 4.76 0.81 5.64-2 0.31-2-1.24-1.68-0.92-3.64l1.24-0.29c0.06-0.41 0.15-0.8 0.67-0.8-0.27 2.09-0.34 4 0.86 4.29 1.54-2.83 1.44-0.27 2.37 0.71 2.42-1.7 0.47-3 1.67-5.5 3.3-1.36 7.81-6.29 5.1-8.82 2.75-0.85 1.28 3.17 3.34 3.11-0.52-1.36 0-3.84-0.72-4.94 2.15-1.11 3.88-2.56 4.25-5.35 2.31-0.68 0.16 3.64 3.45 1.86l0.51-4.57c1.81 1.78 3-1.25 5.79-2.35 0.08-0.83-0.68-0.76-0.37-1.84 3.09-1.57 6.55-5 5.43-8.57 1.76 1.05 4.6-2.3 3.62-3.78 4.53 0.43 3.85-4.54 7-5.51-1-1.31 0.28-0.74 0.95-2a2.27 2.27 0 0 1-1.78-0.37c0.82-1.67 1.21-3.83 3.18-4.26-0.3 1.76-3.16 3.42-0.66 3.89 2.06-3.66 7.48-3.67 9.86-7 1-1.82 1-3.06-0.52-3.71-4.11 1.45 0.38 3.32-2.74 4.74 0.68-2.76-1.79-2.5-2.31-4.1 2.32 1.17 3.89-1.5 6-2.66 0.2 1.56 0.16 3.36 2.53 2.85 0.59-1.19-1.32-2.45 0.65-3.19a3 3 0 0 0 0.86 1.78c1.48-1.75 2.69-3.78 4.24-5.43 3.42 0.79 6.61-5.61 10.31-7.11-0.84-0.1-0.38-1.34-0.8-1.82 1.07-0.61 2.55-0.69 2.52-2.68 3.92 1.23 4.14-2.9 6.43-5.31 0.15 1.75 1.93-1 2.36 0.53a4.42 4.42 0 0 1-2.27 3.83c2.83 1.65 6.13-2.45 7.68-5.22-1.64 0.39-2.06 2.41-4.33 2 3.13-3.87 7.32-6.29 10.12-10.72 0.13-0.72-0.78-0.67-1.71-0.63l1-3.1c2.36-0.32 0.83 2.21 3.19 1.9 4.24-0.95 1.91-4 5.67-3.64 0-2.71-4.18-0.77-5.26 0.53 0.18-2.87 4.63-2.17 3.39-4.32 3 0.25 1.06 3.88 5.26 3.32 1.36-2.72 9.23-6.07 5.59-9.67a20.17 20.17 0 0 1-5.29 5.33c-0.89-1.61 2.59-1.86 0.52-3.11 3.92-1.27 8.62-6.68 11.22-6.71a3 3 0 0 0-1.77 1.11c1.85 0.47 3.5-1.42 2 1.43-1.07 2.12-0.81-2.29-1.88-0.16-2 3.17 1.26 0.26 1.14 2-2.69 1.06-0.43 2.93-3.84 4.64 2.17 0.3 3.27-1.18 4.73-2.08 0.27-1.35-0.11-3.38 2.1-3.55 0.29 0.86-0.33 2.29 0.88 2.59 1.28-1.31 2.93-2.37 1.53-3.56-1.65 1.73-2.34-1.46-4 0.19 0.55-2.89 3.46-1.61 5.09-2.55 0.29-0.9 1.22-2.15 0.45-2.45-1.08 1.3-2.71 1.55-4.25 2-0.27-2.45 1.38-0.85 2.27-3.49-2.56 0.79-4.47 2.77-6.95 3.68 0.19-0.71 0.83-1.72 0.14-1.87-1.57 1.13-2.69 2-1.3 3.05-2.92 0.84-5.42 2.08-6.21 3.92 0.39-1.72-2-0.11-1.74 1.19a2.23 2.23 0 0 1-1.67-0.7 5.48 5.48 0 0 0-1.79 3.06c-3.6-0.73-5 1.94-6.67 4.22 0.31-1.17-2-0.41-2.12-1.28-0.89 2.38-3.36 3.54-5.58 4.7s-4.11 2.44-3.88 4.79c-2.35-0.54-2.54 1.88-3.51 3.21-2.1 0.52-2.15-0.55-3.66-0.47 0.63 3.69-6.57 4-8.79 6.8-0.07 0.91 0.78 1 0.79 1.83a41.27 41.27 0 0 0-5.4 4.21c-1-0.85 1.78-2.79-0.5-3.09-0.35 6.92-9 10-12.38 13.22 0.82 0.45 1.82 0.73 1.37 2.35-2.14 0.48-2.71 2.74-4.42 3.72 0.25-1.64 0.25-3-0.51-3.73-7.77 5.92-14 17.46-22.08 20.52 1-0.74 2.15-1.33 2.3-2.95-1.88 0.85-1.5-0.64-3.07-0.1 0.21 4.08-3.38 2.63-4.3 3.95-0.76 2.09 0.8 1.73 0.07 3.83-2.38-0.45-2.77 0.8-4.49 1.5-0.36 1.34 0.67 1.14 1 1.73-1.83 1-3.4 6-4.93 4.8 0.73-1.26 2.47-1.54 2.32-3.65-3.38 3-2.14-0.06-4.88-0.31-0.82 2.21 0.24 2.39 0.84 3-1.47 2.79-5.68 5.93-9 9 1.32 1.22-0.43 3.28-0.54 5.29-2.18 1-0.52-2.5-2.92-1.27 0.2 3.07-1 4.79-1.91 6.87 1.06 0 1.7-1.34 1.88-0.43-2 0.75-1.51 3.12-0.31 3.28-1.72 0.81-1.78 3.12-3.94 3.53-0.54-1.89 1.1-1.84 1.46-2.93-2.11 0.95-0.89-1.12-0.46-1.83-1.7 1.95-3.44 3.12-5.08 2.53 1.45 0.65 2-2.69 0.8-2.13-3.31 2-3.37 6.94-5.69 9.81 0.09-1.74 0.89-4.29-1.62-2.83 0.76 2.62 0 7.86-3 7.92 0.74 0 2.27-2.46 0.76-2.14-1.63 2.08-3.67 3.82-4.7 6.42a3.46 3.46 0 0 1-3.05 0.18c-0.82 2.27-0.15 1.52-0.23 4-1.16 0.17-1.41 1.11-2.51 1.33-0.82 0.23-0.51-1-1.17-1-5 3.87-5.11 8.78-7.94 13.35a8.1 8.1 0 0 0-2.29-3.26c-0.85 1.82-2.81 2.75-2.66 5.37 1.63-0.59 2.22-5 3.13-2.23-1 2.23-3.32 3.23-6.23 4.47-0.42 3.67 2.17-0.61 3 1.07-5.17 3.93-7.07 10.34-9.49 14.72-0.41-1.66 1.24-1.72 1.28-3-1.89 1.07-1.14-1.46-3-0.38-0.55 7.63-7.56 10.2-10.55 15.92 0.37-1.84-0.23-2.3-1.82-1.38 0.07 2.49-0.05 4.83-1.23 6.37-0.12-0.71-0.68-0.81-1.22-0.92-1.67 4.9-6.24 7.66-7.23 13.05 0-1.15-0.49-1.53-1.23-1.56-3.55 7.14-3.91 5.64-8.38 10.25 0.14-1.57-0.18-2.44-1.25-2.22 0.16 3.33-2 0.87-2.37 3.52a3.75 3.75 0 0 0 0.66 3.08 4 4 0 0 0-2.38 2.19c0 1.1 1.68-0.23 1.83 0.67-2.95 2.75-2.25 0.93-4.74 4.4 1.07-0.23 3-1.76 2.44 0.44-4.85 1.77-8.52 10.75-10.17 5.76-2.22 1.67-2.21 4.91-4 6.87-0.12-0.74 0-1.91-0.66-1.76-0.73 3.2-3.11 1.25-4.11 4.26 0.74 1.89 3 1.4 3.78 3.25-2.44-0.42-6.65 3.13-4.63 5.79-11 12.33-19.53 26.34-29.39 39.45-0.61-2.29 2.17-2.37 2.15-4.27-1.2-0.71 0.67-2.38-1.36-2.16 0.05 0.88-1 1.05-1.1 1.82 0.24 0.81 0.93 0.91 0.76 2.39-1.8 1.52-1.5-0.44-2.45-0.33a16.46 16.46 0 0 0-2.24 3 2.89 2.89 0 0 0 1.32 1.48c2.6-1.56 3.8-0.84 5.43-0.89-1.39 0.78-0.95 2.75-2.82 3.2-0.23-1.1 0.35-3.55-1.38-2.14-1.23 4-6.78 5.27-6.56 10.23-1.89 0-2.14 0.46-1.07 1.81-2.09 0.34-2.45 1.79-3.45 2.82 0.2-2.38 1.88-3.83 2-6.28-4.26 1.46-3.75 6-6 8.7-1.65-1.62-2.53 2.51-4 3.09-1-1.09-0.33-4.95-2.2-4.52 0.51 3-1.79 4.29-2.51 6.55 0.44 2.55 0.5 1.46 1.51 3.44-2.45 0.49-2 0.77-4.71 2.05-0.13-2.12-0.85-1.68-2.1-3.19 0.64-1.68 2.75-2.44 2-5 4.63-2.65 5.41-7.31 9.47-11.58-1.25-4.57 3.39-5.39 4.25-8.62-0.72 0.23-1.41 0.39-1.27-0.82 1.88-0.46 1.2-2.6 3.46-2.82 0.77 0.69 0.72 2.75 2.55 1.65 0-0.67 0.43-1 0.5-1.58 0.39-3.35-2.53-1.2-2.13-4.55 2.22-0.92 2.37-1.41 2.16-4.3a2.22 2.22 0 0 1 1.83-0.07c0.46-1.39 0-3.4 0.93-4.48 2.81 1.27-1.19 4.39-2 6.95 1.17-0.2 0.64 2.38 2.51 1 0.19-2.84 2.28-4.43 2.58-7.19 1.62-1.75 2.61 0.06 2.27-3 1.42-0.85 1.37 0.69 3-0.55-0.55-1.85 0.47-2.67 0.36-4.22 1-0.61 3.07 0.66 3.57-1.45-1.63 0-3.44 0.26-3.19-2.77 3.45 0.93 2-2.21 5.4-1.5-0.82-2.63-0.11-2.18 0.37-4.89-1.5 0.74-2.44 5.14-4.08 3.67 1.27-3 4-5 5.71-7.7-2.56-1.34 3.53-6.7 4.43-9.87-2.74 1.59-7.91 8.1-9.56 4.46a4.38 4.38 0 0 0-1.08 3.15c1-0.45 1.56-0.11 1.86 0.61-3.46 2.87 1.17 3.71-1.5 6.71 0-1.69-0.06-3.28-1.36-2.85a7.33 7.33 0 0 0-1.73 2l0.14 2.66c-1.69 0.79-2.44 2.23-4.12 3-0.84-2.47 1.13-3.09 1-5.14a4.21 4.21 0 0 0-2.33 2.3c0.07 1.34 0.15 2.66 0.22 4 0.81-1.1 1.41-1.31 1.82-0.07-2.86 2.14-4.17 5.33-6.25 8 3.19 8-9.63 11.79-9.19 18.15 0.21-2.57-0.65-3.35-1.51-4.14 3.2-1.93 8-4.84 6.19-8 2.62-0.62 3.21-2.56 4-4.38-1.65-0.6-1.89 2.57-3.61 0.82 1.55 3.91-4.91 3.3-2 6.3-3.8 0.93-3.7 4.37-6.31 6.07 0-1.7 1-2.55-0.77-2.41 0 1.69-2 1-2.38 1 1.62 1-1.15 2-0.32 4.23 0.8-1.1 1.41-1.33 1.83-0.09-2 1.47-1.93 4.25-5.14 4.93-0.18-1 0-2.54-0.79-2.39-1.55 2.51 0 3.08-0.8 5.8-3.41-0.25-3.26 3.73-7 3.73-0.5 2.68-4.36 4.32-5.07 5.63 1.38-0.78-0.24-2.44-0.79-2.38-0.91 1.66-4.92 3.26-2.15 3.67-2.11 2.28-1.34-0.06-3.06 0 0.4 1.72-2.15 1.59-2.19 3 1.45 1.59 1.33-0.21 2.94-1.3 1.21 0.78-0.25 1.36 0.28 3.32-1.57 0.28-2.11 1.2-1.61 2.76-1.42-0.88-3.11 3-3.64 0.24 0.56-0.6 3.37 0.05 2.72-3.95-2.9 2.72-2.42 0.39-4.83 0.75 0.75 3.19-3.7 3.15-3.78 5.81-0.6-1.83 0.84-2.39 0.25-4.24 2.6-0.68 3.15-2.64 3.9-4.48-0.65 0.12-1.5-0.47-0.69-1.07 1.93 0.13 3.37-5.43 3.6-8.46 1.41-0.9 1.38 0.64 3-0.63 0.14-2.53 2.08-6.3 3.84-5.8 1.15 2.2-2.53 1.34-2.21 3 1.24 0.39 0.17 4.73 2.13 3.88 1-1.75-0.44-1.05-0.26-3.32 2-0.67 1.55-2.81 2.77-3.95 1.86-1.65 0.6 2 2.46 0.3-1.55-1.17-0.42-4.49 0.81-5.83a4.58 4.58 0 0 1-2.06-3.23c2.54-2 2.71-5.48 5.63-7.21 0.66 1-1.63 3 0.18 2.66 0.77-3.22 2.78-1.92 3.31-5.52 1.26 0.36 5-3.1 5.16-5.6 2.21-1.19 1.72 2 4.29 0.24-1.68-1.41 1.23-3.7-0.31-5.34 1.66-0.18 1.13-1.82 2.32-2.31 0.11 1 0 2.34 1.3 1.5-0.2-1.21 0.6-1.76 0.46-2.92 1.86-1.09 1.67 1.14 3.1 0.76-1.07-3.28 1.71-4 2.1-6.32a23.59 23.59 0 0 0-4.67 4c0.86-3.92 5.39-5.43 6.25-9.39-3.18 3.27-7.43 5.83-9.28 10 0.94-0.33 2.07-1 1.87 0.59-2.24 0.86-1.75 0-3.59 1.49-0.66-0.62-0.72-2.23-1.38-2.85 4.73-2.53 8.79-6.45 8-10.82 0.32 1.56 2.76-0.61 1.73-2.08 2-1.32 1.11 2.07 2.52 1.7 0.12-1.65 1.79-2.26 2.28-3.65-1.06 0.24-3.12 3.45-3 0.55-0.52-1.64 2.85-0.67 2.35-2.31-1.12-2.23-1.1-1.63-0.19-4.69-1.91 1.36-1.92-0.27-2.49-1 2.57-0.79 0.42-3.13 0.45-4.27 2.09-0.94 1.09 3 3.14 2.15 0.36-2.59 1.92-4.36 3.46-6.16 0 1.72-1.1 2.57 0.69 2.45 1.21-2 1.73-0.35 3.62-1.43-1.79-1.32 1.45-2.85 3.56-3.45 0.28-2.62 0.87-4.28-0.77-5.13 2.55-1.59 3.44-0.64 4.3 0.36-0.61-3 3.41-5 1.67-6.73 0.87-0.72 3.15-0.43 3-1.85-3.25-2.51-6.74 6.8-9.67 5.1 1.87-2 4.17-3.68 6-5.71-3.78-0.82-2.91-4.94-5.65-6.65 3.44-0.87 4.31-7 7.22-11.58-0.48 2.5 0.11 3.12-0.54 6.31 4.64-2.7 8.58-5.88 9.72-11.1 5.68-1.67 5.13-7.95 11-9.44-0.44-1.68 1.23-1.8 1.24-3.15l3.08-1.1c1.76-6.22 9.36-9.16 11.86-12.86-0.72 0.13-1.76 0.71-1.84-0.05 0.61-0.91 0.41-3.71 1.91-2.66-1.46 0.51 0.18 1.76 1.2 0.93 0.41-1.63 7.36-7.43 6.34-7.5 0.22 1.41-2 4.3-0.74 4.25 2.1-1.34 3.33-3.38 5.07-5-0.67-1.66-2.55-1.67-2.94-3.71 2.73 1.61 7.09 2.83 8.72-3.52-1.71 0.6-1.21-0.73-2.49 0.79 0.37-4.84 3.81-6 5.43-11.06 3.69-0.23 4.27-6.75 9.67-7.66-0.17-2 2-2.12 1.5-4.45-0.73 0.11-1.78 0.66-1.84-0.11 3.86-0.92 3.24-6.51 7.45-8.85 0.4 3-4.39 5.38-3 6.86 3.18-2.29 9.69-12.42 9.87-8.19 2.2-3 4.09-8.53 8.45-11.6 3-1.07 3.5 0.21 5.16-2.05 1.81 0.63-0.14 3 0.86 3.72a3.26 3.26 0 0 0 1.41-1.69c0.18-1.59-0.89-1.7-0.22-3.89 2.39-1.1 0.8 2.6 2.18 2.72 2.95-1.14-0.71-3.94 2.41-5.24-0.3 1.5 0.28 2 1.68 1.54 1.44-2.72 0.11-2-0.17-3.89 2 0.31 0.75-2.31 2.71-2 1.47 0.51-1.38 2.32 0.32 2.54 2.55-0.38 1.21-4.38 2-6.41-1.09 1.67-4.64 3.25-4.39 0.44 3.11-2.88 6.8-5.24 8.67-9.34-0.47 0-1.26 0.28-1.18-0.38 3.28-1.42 1.18 3.24 4 2.33-0.26-3.06 3.95-1.82 4.32-4.28-1.44-0.35-3.83 2.48-4.21-1 2.14-0.89 2.92-0.24 4.41-0.36l0.73-4.74c3.24-1.49 4.55-4.91 7.88-6.3 0 2.87-1.2-0.27-1.52 1.63 0 0.93 1.29 0.47 1.72 0.95a18.51 18.51 0 0 1 6.1-9.73c2.09-0.9 0.91 1.61 3 0.71 2.1-1.71 3-1.59 2.75-4.42 2.58-1.17 1.84 1 2.87 1.41a47 47 0 0 0 3.42-4.52c-0.46 2.92 0.89 1 3 0.77-0.37-1.6 2.18-4.07 2.37-2.36-4.46 5-10.16 8.74-15.11 13.17 1.44 0 0.38 2.54 1.35 3 2.32-2.68 6.29-5.47 9.57-8.36s5.72-6 5.15-9.25c1.91-1.89 1 0.81 3.13 0.14 0.86-2.38 2.89-3.46 4.32-5.21-0.75-1.56 1.29-2.47 0.12-3.26-1.57 1.05-3.58 1.59-4.05 3.88 0.75 0 1.89-0.41 1.82 0.36-1.75 0.28-1.9 2.34-3.72 2.54 0.18-2.3-2.38-1.92-2.25-4.18 1.93-1.91 1 0.8 3.14 0.14 0.12-4.3 7.86-3.56 4.9-7.25a3 3 0 0 0 1.84-2.21c1.88-1.12 2.26 1.59 3.32-0.48 0.21-0.88-1-0.44-1-1.16 2.18-1.49 3.93-3.55 6.41-4.73-2.35 0.21 2-2.4-0.1-1.95-1.33 2.28-4.1 2.85-6.28 4.07 3.39-2.29 3.37-4 5.71-6.59 0.53 0.53-0.51 2.45 1.43 1.77 0.28-0.86 1.12-1 1.24-2.1-1-0.51-0.7-2.08-1.89-2.37-1.22 2.46-4.15 2.8-4.91 5.82-2.2 0.75-2.28-0.37-3.84-0.13-3 4.13-2 7.54-7.43 8.93-1.46-0.54 2.33-3.06-0.65-2.51-0.09 2.65-0.49 3.07-2.49 5-1.5-0.28 2.85-4.49-0.36-3.88 0.11 2.33-1.95 3.27-0.77 6-4.21 1.35 1.23-3.54-2.52-2.84-0.4 3.44-3.37 4-0.44 4.65-3.7 0.26-5.65 2.16-4.07 4-0.82 0.22-1.59 0.48-1.59 1.6-1.35 0.39-2-2.55-3.8 0.05 0.1 1.35 0.93 1.93 1.27 3-1.18 1.26-3.94 5.06-5.16 3.58 1.87-0.5 2.31-2.51 3.84-3.34-4.76 1.62-7.18 8-10.37 4.67-0.76 3-4.26 3.19-4.93 6.27 1.46-1.47 4.63-1.18 4.56-4.23l2.61-0.54c-0.17 0.92-0.33 1.83-0.5 2.73-2 0.42-4.18 2.46-7 4.09-0.6-0.85 0-2.93-2.14-2.17-0.72 3.86-5.5 5.85-6.74 6.78 0.94 1.86-1.8 4.47 0.43 5.15a1.6 1.6 0 0 0-0.85 1.52c-1.76-1.41-3.71 0.83-4.12-1.65a3 3 0 0 0 0.62 4.46c-2.91 1.28-6.26 9-6.2 4.12-1.19 0.5-3 4.25-4 2.34 0.62-1.19 2.15-1.53 2.27-3.21-3.11-0.12-2.8 3-4.84 3.87l0.17-1.37c-0.48 0-0.67-0.38-0.47-1.2 1-0.36 2.35-0.36 2.66-1.35 0-0.77 0.36-2-0.38-1.89-2 1.91-5.39 4.11-4 7a24.2 24.2 0 0 0-7.86 8.69 2.79 2.79 0 0 1 2.83 2.55c-3.29-1.82-0.75 1.48-4.05 3.09-1.38-1.64 1.74-5-0.7-5.11-2.89 3.39-7 5.75-7.9 10.82-4.62 1.09-7.91 7.92-11.89 8.81-0.16-1.1 1.07-2 0.16-2-2.19 1.68-2.13-2.53-3.74 0.45 0.32 1.23 1.8 1 2.31 2-0.59 3.63-3.45 5.34-4.92 8.17 1.66-0.5 3.72-1.52 3.67 0.2-1.07 1.73-3.17 2.61-4 4.57 0.28-1.63-1.77-0.19-1.76-1.45 2.22-0.55 3.8-1.64 4.53-3.42-2.45 1.5-2.08 2.42-3.1 0.3-2.17 2.73-5.15 4.82-7.27 7.62 0.3-2.34-2.14-2.79-3.65-0.84-0.47-2.29 2.87-1.48 2.69-3.53-2.11-0.4-5.08 1.31-5.27 5.71 2.3-0.07 2.26-0.59 2.4 1.24 2.46-1.62-0.3-3.05 2.7-4.22-0.1 1.6-1.2 2.35-0.86 4.29-3.71 3.78-9.65 8.21-9.84 12.61-1.92 1.13-1.79-0.57-3.71 0.57 0 0.69-0.54 1-0.67 1.57-0.65 1.47 1.77 1.65-0.11 2.72-2.87 0.44-9.42 7.41-8.32 10.93-2.24 1.82-0.31-2.17-1.81-1.39-0.14 1-1.52 1.15-2.5 1.55 0.57 2.05-0.9 2.53-2.51 2.92 0 0.86 0.77 0.65 0.58 1.82-1.81 0.47-1.93 2.21-3.73 2.67 0-1.17-0.45-1.56-1.21-1.58-0.33 1.12-0.94 2-1.28 3.15 1.16-0.26 1.38-1.25 2.49-1.57-0.92 2.11-2.06 3.56-1.93 4.75-1.07-2.82-2.7 3.18-4.92 1.8a27.87 27.87 0 0 1-11.1 12.93c0.18 2.69-0.22 1.61-1.84 2.05-1.26 3.53-4.45 8.72-7.29 8.91 0.52 3.53-5.28 6.06-6.68 6 0.48-0.26 1.81-3 0.58-2.27a5.8 5.8 0 0 0-2.39 3.66c0.74-0.21 1.44-0.36 1.24 0.88-1.91 1.56-2.45 4.06-3.57 6.18 1.14-6.39-1.24-8 2.89-10 0.43-3.27 2.9-5.11 3.59-8.21 1.92-1.09 2.4 0.55 3.67-1.42 0.59 1-1.81 3 0 2.71 2.69-4.37 6.5-9.65 5.48-13 2.17-1.19 1.5 1.83 3.68 0.65-0.66-3.81 4-5.73 4.95-7.28a7.83 7.83 0 0 0-1.26 4.53c-2.4 0.32-4.73 4.21-3.07 5.23 3.12-1.79 3.73-5.42 6.77-7.27v-2c-1.4-0.42-2.33 2.6-2.46 0.91 1.34-0.38 0.3-2.52 0.65-3.64 4.77-1.73 1-5.59 4.39-8.39 0.77 1.4-1.42 3.81-0.05 3.41 1.87-2.74 4.22-5.12 5.69-8.15 1.76-1.19 1.59 0.39 3.09-0.42a35.16 35.16 0 0 1 1.35-5.22c1.65 0.09 0.52 4.06 1.72 4.79 1.54-0.43 1.55-2.06 2.54-2.91-2-0.52 0.52-3.24 1.34-3.83-2.08-0.69 0.38-2.67-0.51-3.21-0.39 0.1-0.74 0.16-0.6-0.46 2.33-1.53 0.9 2.22 3 1 2.77-2.19 0.32-6.65 2.74-7.69-0.23 1.62 0.05 2.52 1.15 2.31 4.07-2.5 2-7.6 2.22-8.84 0.12 1.35 1.6 0.8 2.41 1.21 0 1.74-2.19 5.25-0.86 5.67 4.48-3.59 1.51-5.58 3.53-9.93 1.2-0.54 1.35 0.32 2.48-0.14 0.07-1.37 0.15-2.73 0.22-4.1-1.15 0.34-2.32 4.2-3.21 2.4 1.45-1.69 3.42-2.95 4-5.35-4.67 4.58-8.79 9.61-13.07 14.47 1-6.1 12.22-11.49 10-15.49 0.16-2 1.58-3 2.72-4.28 0 0.79-0.23 2 0.5 1.87 2.29-2.71 5.64-4.53 7.92-7.23 0 0.77-0.24 2 0.5 1.85 0.2-2 2.77-2 2.76-4.23-1.23 0.68-1.69 2-3.26 2.38 1-4.08 2.48-5.17 2-9.35 3-1.4 0-2.13 4.76-4.82-0.11-4.54 7.26-9.16 10.61-13.21 0 0.78-0.3 2 0.43 1.89A1.51 1.51 0 0 1 216 392c-1.57-0.87-1-3.67 1.77-4.52 0.85-0.23 0.45 1.05 1.13 1 0.27-1.9-0.91-1.09 0.32-2.77 1.29-0.56 1.18 0.57 1.77 0.84 0.31-1.35-0.55-1.32-0.31-2.58 2.16-3.08 7.63-5.74 7.36-8.71 2.45-1.31 0.12 3 2.22 2.07 0.84-7.4 6.21-10 10.4-11.38-0.69 0.21-0.65 1 0.55 0.52-1.79 2-2.32 6.47 0.27 6.58 1.15-2.36-0.23-2.65 1.93-4.47-1-0.34-2.09-0.71-1.44-3 2.16-0.72 1 2.34 2.85 1.95 1.48-1.15 2.39-0.29 3.56-2.89-0.7-6.12 6.24-11.14 8.57-16.61-0.44 1.73-0.77 3.38 0.67 3.15 2.17-2.5 3.54-2.56 2.27-5.14 4.31-1-0.68-2.54 2.67-3.92-0.72 2.42 0.56 2.72 1.17 3.73a3.56 3.56 0 0 0 1.59-1.66c-0.58-0.68-1.64-0.85-0.64-3.19a1.83 1.83 0 0 0 1.93-3.07c9.17-5.77 14.59-16.54 22.65-16.94 0.31-2.68 2.56-3.09 2.89-5.77 3.89-0.26 4.65-2.75 4.79-5.42 3.74-2.42 5.59-2.11 5.65-5.49 3.06-1.51-0.69 3 1.2 2.48 2.53-0.63 2.3-3.23 4.56-2 0.19-2.33 1.66-3.12 3.22-3.72-0.17 0.79-0.78 2 0 2 7.9-8.87 21-16.52 27.67-24.63-2.91 1.28-7.36 6.16-9.18 5.37 0.85-0.23 2.2-1.27 1.3-1.43-2.1 0.88-4.54 1.9-2.59 2.88-3.41 2.44-3.66-0.71-2.86-3.07 4.68-1.2 11.71-3.14 10.55-6.89 2.31 0.54 2.3-2.68 4.56-2.31 0.26 1.51-3.09 2.69-1.29 2.74 2.24 0 3.31-1.89 4.53-3.58-0.49-0.13-1.44 0.06-1.14-0.61 2.56-0.22 2.72 1.21 1 3.95-1.93 0.77-2.56-0.1-4.12 2.9 3.42-0.94 0.37 2.87 3.05 2.47 0.84-1.4 2.27-1.88 3.41-2.82-0.88-4.8 3.73-11.07 8.5-14.38-1.91 2.62 2.3 0.71 2.93-0.07-0.16-2.68 5.92-4.05 8.94-5.47-0.46 1-1.71 2.47-0.82 2.69 3.35-0.69 2.44-4.89 4.66-5.36 0.26 2.74 3-1.59 4.18-2-0.85 1.47 3 0.38 4.12 0.83 0.64-1.26 1.79-1.42 2.48-2.62-1.46 1.09-3.86 2-3-0.12 3.08-0.4 6.35-2 4.93-3.88 3-0.71-0.89 2.18 2.1 1.46a6.75 6.75 0 0 1 1.09-1.8 1.9 1.9 0 0 1 1.1-0.51 4.72 4.72 0 0 0 2.78-0.61c1.92-1.9 0.74-2.32-0.07-2.92 0 1.05-1.7 1.82-3.81 2.58a27.89 27.89 0 0 0-4.71 1.73c1.76-1.79-0.6-1.39 0.27-2.72 1-0.41 1.9-0.7 2.92-1.2a12 12 0 0 0 3.59-2.5c-0.21-0.7-1.05-0.72-2.17-0.5-0.56 0.11-1.18 0.28-1.82 0.44l-1 0.24a5.35 5.35 0 0 1-0.75 0.1c0.59-0.28 1.71-0.77 2.44-1.06s1.5-0.58 2.15-0.79a14.38 14.38 0 0 1 3.22-0.71 19.79 19.79 0 0 1 5.21 0.53 11.27 11.27 0 0 1 6.36-2.36 38.93 38.93 0 0 0 6.21-0.46c0.15 1.16-2.3 3.34-1.73 4.35 3.84-1.83 7.95-2.43 11.73-4.58 0.94-1.38 0.16-3.36 3.92-3.4 0.2 1.27-4.44 2.44-0.44 2.93 1.4-2.6 1.74-1.24 5-2.35 0.17-1 1-2.15 0.55-3-1 0.56-6.15 1.77-4.48 0.19 2.35-0.61 4.78 0 7-2.16-0.91-1.16-5.57 1.26-3.65-0.46a2.57 2.57 0 0 0 2.54-2c3.44 0 4.31 0.79 3.75 2 2.3-1.07 4.66-0.68 7-1.92 2.75 0.53 3.19 3.58 7 1.55 4.11-2.1-2.37-1.81 2.64-4.11 4 0.26-3.18 3.06 0.79 3.33 3.28-0.65 6.56-0.79 9.85-1.37a41.58 41.58 0 0 0 10.05-3c-1.12 2.56 5.61-0.26 7.65-0.15 2.82 0.49 1.46 3.17 5.39 2.31 1.57-0.9 3.4-1.87 5.12-2.7a43 43 0 0 1 4.5-2c0.07 0.87 2 1.45 4.42 2.34 0.53 1.9-5.68 0-4.73 1.88 1.94 0 4.95 0.19 7.69 0.07s5.18-0.17 6.11-1.12c-2-0.89-6.1 0.18-5.45-1.56 4.06-0.61 8.6 0.16 12.74 0.86s7.87 1.68 10.73 1c8.32 2.67 11.4 6.74 17.78 5.13 1 1.35 0.37 2.58 3.8 2.67-0.45-0.8 0.37-1.3-1.25-2.39 2-0.27 3.93-0.37 5.92-0.53-1.23 3.49 10.73 2.52 9.74 5-1.72-1.65-4-0.86-3.93 0.21a6 6 0 0 1 3.47 1.7 4.9 4.9 0 0 0 3.73 1.43c-0.11-2.29 2.92 0.6 6.18 0.89 2.64 2.15-2.75 0.36-0.11 2.5 0.83 0.17 1.89 0.11 2.35 0.72-1.48 1.24-8.3-2.93-8.09 0.32 2.47 0.09 4.71 1.76 6.77 3.13 2 1.55 3.85 2.71 6 1.6 0.92 1.41-0.2 1.41 0.59 2.72a8.38 8.38 0 0 1 4.14 1.92c1.15 0.88 2.09 1.55 2.81 0.94-0.62-2-3.65-1.53-4.06-3.64 6.58 2.61 8.45 6 12.82 6.36 0.47 2.16-2.44 0.74-2 2.82-1.12-4.09-6.6-5-6.3-2.75a18.89 18.89 0 0 1 4.72 3.09 33.7 33.7 0 0 0 4.24 3.62c0.41-0.68 0.45-1.76-0.42-3.79 3.62 0.79 4.68 3.74 7.26 5.43 1.23 3.11-0.69 2-0.71 3.51 2.94 1.44 5.32 4.88 7.41 8.37 1 1.78 2 3.53 3 5.07a12.33 12.33 0 0 0 3.25 3.74c-0.67 1.27-2.49 0.16-3.33 1.05 1.57 4.94 2.91 0.28 3.77 4.92-0.77-0.54-1.48-1-1.35 0.75 1.08 1.16 2.7 3.63 3.68 3.26-0.71-2.24-1.67-4.36-2.2-6.73 1.12 0.72 1.52-0.34 1.41-2.6 2.72 4.5 3.9 9.83 5.44 14.9 2.51 4.07 2.85 0.63 4-0.08 0.26 5.42-0.73 1.82-1.54 5.93a21.42 21.42 0 0 1-4.07-7.32 54.46 54.46 0 0 0-2.77-6.86c0.51 4-0.34 3.35 0 7-2 0.18-2.86-2.39-4.53-0.28 0.38-2-2.71-6.41-2.74-5.33-0.59 3.5 3.43 8.44 4.6 6.08-0.82 2.73 1.93 8 2.86 7.08 1-2.4-1.64-3.18-1.09-5.41 0.67 0.52 0.83-0.82 0.9-2.14 3 5.22 4.45 14.34 5.14 21.84s1.54 13.18 5.15 11.55c-1.22 1.37-1.77-4.47-0.29-3.33 0.32 1.15 0.31 6.57 1.15 4.82 0.09-4.34-1.86-8.08-3.89-11.63 2.13-4.39-1.41-6.84-0.77-10.74 1.94 1.25 0.6 3.75 1.46 5.43 0.8-0.58 1.82 0 2.42-1.74 1.6 3.83 3.14 2.35 2.3 7-1.49 0.57-2.79-6.56-4.18-2.07 2.89 3.3 4.4 7.91 5.81 5.95 1-1.59-1.35-6.43 0.86-5.54a6.22 6.22 0 0 0 0.92 4.15c-2.3 3 0.22 10.78-3.75 9.72 2.5 2.24 5.29 15 2.65 20.42 0.54-0.86 1-0.51 1.54-0.16-0.46 1.23-0.86 2.45-0.1 3.56-1.06 1.7-2.09 1.78-3.06 0.29 0.78-4.75 0.42-9.41 0.16-14-0.87 1.47-1.81-2.33-2.65 1.35 1.22 1.19 1.36 4.28 1.23 7.79s-0.06 7.31 1 10.15c1.07-2.4 0.77-4.53 2.09-2.82 0.19 2.75-0.4 7-0.69 10.59s-0.43 6.46 1.17 6.51c-1.93 1.38-3.91 2.79-2.13 8.13-0.9 1.87-1.39 0.87-2.27 2.54-1.45-1.91 1.44-3.52 0-5.41-2.88 6.12-0.31-2.77-1.8-1-1.42 2.29-0.53 4.7-1 7.06 2.61-3 1.5 3.71 4 1.28-1.63 1.48-4.63 8.73-2.45 10.71-1 1.35-0.9 2.91-1.87 4.25-3.24 1.29 0.19-10.93-3.08-6.86a58.24 58.24 0 0 0 2.58-15.72c0-4.83 0-9.49 0.08-14.64-2.77 3.95 0.52 8.8-2.52 10.31 0.28 3.69 0.75 4 2.19 4.39-2.16 6.31-0.44 2.88-2.76 3.32 0.39 3.2-0.93 5.39 1.28 4.49-1.11 5.81-3-1.28-4.54-0.44 0.68 4.07-2.35 7.7-1.9 11.77 0.88-0.67 1.65-0.62 2.54-1.33-1.19-2.21 0.1-4-0.12-6.1 1-2.15 3.57-1.79 2.49 1.19 0-2.09-2-2.32-1.51-0.2 0.37 2.35 1 3.38 1.67 3.77-0.55 2.94-3.18 10-1.84 10.36 1.91-2.6 0.5-5.86 2.3-8.5 1.46 2.74-1 6.15 0.79 6.47-3.56 1.24-6.15 17-2.72 15.69-1.53 2.19-3.16 0.67-2.71 3.4 0.47 0.81 1.23 0.34 1.71 1-1.53 1.45-0.08 2.05 0.46 3-0.84 1.72-2.07 3.33-2.75 5.06-0.59-4.49-1.59-9.08-4.07-11-0.55 2.33 0.84 2 1.71 2.79-2.23 1.52-0.74 4-2.5 5.69-0.6-1.36-1.76-0.26-3 0.91 1.73 2.89-1.3 4.44-1.3 5.35 0.44 0.89 0.69 2.52 1.44 2.13 0.51-0.7 0-4.48 1.51-3-0.42 0.73 0.14 4.53 0.68 3.64-0.59-1.19 0.68-4.7 2-3.45 1.78 3.42-1.16 5.41 0.83 7.7-0.92 1-1.31 0-2 0-0.28 2.47-2.41 6.57-0.43 7.85-3.22 3.51-0.61 5.48-1.24 9.25 0-0.11-2.59 2.07-0.33 2.72-1.23 1.69-1.61 0.18-2.73 1.42 2 1.62-1.17 5.82-0.78 8.7-0.51-1-1.38-0.73-2.46 0.36-1.65 2.43 1.16 1.35 0.4 2.9-0.49-0.62-1.11-0.77-2-0.05 1.58 1.6-1.57 1.74-0.83 3.07 0.35 1.55 1.7-0.45 2.17 0.67-1.69 3.16-0.13 7.34-2.07 10.39-0.36-1.09-1-1.29-1.68-1.08 0.92 3.12 0.62 5-1.62 4.44 0.16 3.89 0.41 8.79-2.79 10 1 2.14-0.78 3.37-0.67 5.22 1.14 0.77 0.42 2 1.85 3.28-1.66 0.57-2 0.54-2.28 2.52-1.53-0.47-0.29-2.82-0.35-4.42-1.84 1-2.81-1.21-4.07-2.35-1 2-1.72 4 0.08 5.41-1.34 2.83-3.93 5.26-1.75 9.14-0.94 1.75-2.46-1.2-2.22 0.91 0.22 0.61 0.68 0.42 1 0.83-3.56 3.49-2.5 12.15-5.51 17.41 2.21-1.81 1.75-2 4-3-1.37-1.48 1.42-1.69 0.06-3.15-0.58 0.36-0.44 1.45-1 0.75 0.34-5.11 3-6.47 3.43-11.17 0.38 1.53-0.17 3.78 1.91 1.66 0.59 2.28-0.07 3.35-1.8 3.69 0.36 1.55 0.93 7.21-0.69 9.83-0.41-0.9-0.74-2.11-1.69-1-1.24 1 0.07 2.83-0.31 4.1l1.48-1.12a83.19 83.19 0 0 0-2.58 14.31c-1.19 1.56-1.61 0.16-2.69 1.3l1 2.33c-0.88 0.92-1.29 0-2 0 0.48 1.16-1 1.77 0 3.08 0.61-0.36 1.35-1.17 1.71-0.55-0.93 1.28-0.13 3-1.44 4.19-0.43-0.86-0.79-2-1.71-1 0.8 1.24-0.34 1.94 0.76 3.25a1.26 1.26 0 0 1 1.95 0c-3.7 1.89-1 5.46-2.3 7.94-0.82 0.17-1.06-2.13-2-1.52-1.75 2.76-2 6.59-2.5 10.51a30.34 30.34 0 0 1-1.2 5.8c-0.16 0.47-0.34 0.94-0.54 1.4a3.45 3.45 0 0 1-0.53 0.55 7.35 7.35 0 0 1-1.57 1c0.55 0.39 1.34-0.17 1.82 0.47-0.27 1-0.86-0.3-2 0.35-0.26 1.06 0.94 0 1.73 0.81-0.89 0.46-1.52-0.1-2.46 0.56 1 0.94-0.63 1.74 0.52 2.64a2.72 2.72 0 0 1 2-0.16c-0.44 0.24 0.07 0.5 0.59 0.74-2.65 1.43 0.29 2.13-1.1 3.19-2.37 0.17-0.54-1.22-1.14-1.82-0.43 0.22-0.79 0.11-1.2 0.26a34.85 34.85 0 0 1-0.91 4.5c1.31-1.09 2-2 1.69-2.79 0.56 0.38 1.27 0 1.9 0-2.62 1.68 0.17 0.85-0.38 1.88-1.14 0.46-2.87 1.66-2.74 2.41 1.9-0.69 2-1 3.29-1.41-1.37 0.82-0.09 1.09-2.28 2.16 1.49-0.24 2 0.79-0.28 1.6 2.18 0.83 0.9 2.58 0.54 4.22 0.6 0.63 3.32-0.73 2.64 0.18-2.27 0.64-0.64 1-3.32 2.62 3.73-0.45 0.69 3.18 4.49 1.75-1.43 1.39 0.49 0.79 0.35 1.4-2.49 1.18-2.67 2.41-2 3.28a3.08 3.08 0 0 0 2.47 1c-2.53 2.42-1.62-0.18-2.83 0.77-0.84 1.24-1.87 2.7-1.83 3.34 2.08-2.18 0.68-0.26 0.86 0.2a11.15 11.15 0 0 1 3.15-2.19c-1 1.68-2.11 1.34-3.1 2.6-1.22 1.91-0.85 2.83-3.64 5 1.77-1 3.43-2.46 5.17-3.44-1.87 2.27-1.21 3.37-2.49 5.38 1.65-1.46 2.93-4.59 4.57-6.2 0.93 0.6-4.37 6.52-0.61 4.94 0.06-2.62 2.57-4.82 3.22-7.65 0 0.83 1.15 1.6-0.18 3.19 0.15-0.39 0-0.48-0.51-0.15-2 3-2.17 4.38-1.83 5.15-1.25 1.08-1.48 0.56-2.89 3.25 0.48 0.13-0.26 1.66 0.91 1 0.85-1.47-0.33-1.32 1.25-2.05 0 1.49-0.84 3.42 2 0.73-2 3.75 0.14 4.57 1.67 1.74-0.28 0.82-0.58 1.68-0.82 2.49 2-2.26 1.3-0.54 2.3-0.68-0.77 2.35-1.83 3.18-1.58 4.71 1.85-1.27 3.69-2.8 3.9-0.66-1.25 1.41-1.81-0.53-3 2.08 0.88 0.09 0 2.2 0.4 2.33 2.36-1.43 2.53-0.76 4.84-4 0.12 2 1.77 0.85 3.14 0s2.55-1.59 2.46 1.32c0.56-1.38 0.94-1.87 1.48-2 0.53 1.1-1.6 4.79-0.24 4.18 1-1.21 0.19-2.43 1.36-3.64 1.31-0.42 1.88 1.07 3.48-2.27 0.66 0.92-1 2.11-0.79 3.08 1 0 2.22 0.6 3.33-3 0.68 0.16 1.29 1.21 2.37-1 0.25 1-0.13 2.25 0.42 3.19 1-3.28 1.12 0.86 2-1.56a20.37 20.37 0 0 1 0.69-4c0.53 1.85-1.14 4.45-0.33 6.21 0.4-1.2 0.66-0.53 1-0.82a7 7 0 0 1 0.38-3.4c0.58 1-0.31 3 0.59 2.56 0.64-1.8 0.3-3.21 0.18-4.72 0.56 2.36 0.27-2 0.86-0.79-0.24 1.07 0.24 0.41 0.49 1.2-0.24 1.07-0.72 0.78-0.55 1.61 0.58 1.75 1.2-0.26 1.77-0.74-0.43-1.6-0.82 1.38-1.22-0.87 0.85-3.34 1.85-0.79 1.72-4.87 0.14 2.11 0.61 1.92 0.82 3.31a7 7 0 0 0-0.37 3.4c0.65-0.21 2.45 0.65 2.23-2.43-0.4 1.55-1.43 0.72-1.52-1.13 0.88-2 2-1.81 2.53-4.87 1.18 1.72 1.47-2.18 2.11 1.21 0.52-2 1.22-1.72 1.34-3.45 0.68 2.69 1-1.35 2 0.21 0 1.86-1.07 0.11-1.1 2 2 1.85-0.81 1.47 0.15 3.58 0.89 0.37 1.13-0.59 1.63 0 0.1-3.12 1.27-4.35 1.22-7.13 0.71 0.94 0.37 2.52 1.13 3.43 0.16 1.43-1.37 1.16-0.54 2.64 0.8-1.3 1.33-2.88 3.22-1.54 0.46-1.5 0.21-4 2.17-2.36 1.09-1.26-1.42-5.68 0.8-4.7-0.43 1 0.41 2 1 3.5 0.23-2.6 4.56-3.51 3.28-6.07-2-1 0.75 1.45-1.23 0.41l-0.2-2.19a2.1 2.1 0 0 0 2.63 0.24 13.43 13.43 0 0 0 2.42-1.87c-1.15-2.84 1.77-3.36 2.47-6 2.17-0.71 2.46 0.39 3.72-0.64 0.56-3.57-6 1.06-3.59-3 1.6 2 8.11-0.28 9.61-3.17-1.05 0.06-1.46-0.43-1.58-1.16 1.8-0.55 1.4 0.8 2.9 0.51 2.35-2.72 0.42-4.17 3.82-4.36 0.06-1.24-1.41-1.12-1.36-2.35 1.79-0.58 1.4 0.78 2.91 0.45 0.63-2.71 1.85-4.67 4.5-5.06 0.82-2.13-2.32-0.62-1.29-2.94 1.31-0.7 1.77-2.36 2.94-3.21-0.4 1.4-0.25 2.28 0.8 2.36 5.64-6.81 9.38-11.59 16-17.76-0.74 0-1.42 0-1.05-1.11 1.89 0.36 1.5-1.72 2.7-2.11 0.14 0.76 0.61 1.19 1.64 1 1-2.27 3.45-3 3.82-5.93 1.17-0.27 1.25 0.55 2.35 0.34 0.13-4.12 4.07-4.27 5.16-7.38-0.61 0.07-0.66-0.42-1.14-0.47-0.63 1.47-2.08 2.09-3.37 2.87 1.11-1.95 2.35-4.16 1.41-6.3 2.68-1.27-0.31 3.2 1.43 2.88 4-5.45 7.46-18.06 13.24-21.52-0.67-1.9 0.34-1.81 1.53-3.31 2.13 1.81-3.08 6.24-0.11 6.79a47.47 47.47 0 0 0 7.91-13c2.24-0.82 2.09 0.73-0.07 0.63 1.07 0.5-1.75 5.17 0 6.17 2-2.67 3.84-8 3.29-9.2 0 0.72 0.9 0.52 1.77 0.31 2.27-6.95 6.7-11.88 6.57-21 1.78-0.28 2.15 1 2.83 2-1.06 0.43-1.48-0.65-1.81 0.33-0.76 1-0.78 1.66 0.45 1.77 1-1.31 2.66-2 3.28-3.72-0.84 0-0.58-1.24-1.07-1.66 0.51-1.33 3.37-0.49 3.73-2 0-0.72 0.24-1.81-0.46-1.78-1.57 2.16-1.14 2-3.08 1.22a8.25 8.25 0 0 1-2.65 3.62c0-2.17-2.39 2-2.38-0.18 1.2-1.77 0.83-0.83 3.07-1.2 3.57-3.37 2.18-6.6 4.27-9.53 0.66 2.53 0.32 6.2 3.14 6.24 2.71-1.35 1.61-6.16 3.55-8.19 2.93 0 3.07-2.6 4.46-4-1.39-1 0.55-6.81 2.16-6.07-1 1.13-2.1 3.88 0.42 3-0.18-1.93 1-2.66 1.43-4.07-1 0.15-0.38-1.51-1.74-0.88a42.55 42.55 0 0 0 2.81-7.46c5.42-1.06 1.58-6.44 7.52-7.31-0.19-1.94 1.2-2.48 0.83-4.56 1.9 2 2.59 3.9 3.26 6.78 3.59-5.33 8.24-10.72 6.1-16.5 3.4-3.66 7.88-9.91 6.5-15.41-6.74 1.94-4.55 14.06-9.5 15.48 1.2-0.58 1.83 2.46 0.48 3-0.21-0.74-0.72-1.12-1.76-0.85-1.1 3 2 7.31-1.63 10.44-0.79-3.34-2-10.19 0.58-14 1.17 0.16-0.53 3.87 1.68 2.76 0.56-4 1.81-6.7 0.4-10.78 2.6-1.7 4.46-4.06 6.76-6-0.45-4.38 2.1-5.89-0.36-8.74 2.06-1 0.7 2.39 3 1.16 2.16-2.61 0.77-1.5 3-0.74l0.14-5.71a4.78 4.78 0 0 0 3.06-3.94c-1.87-0.25-1.48 1.37-2.42 1.89 0.38-2.15-0.13-3.16-1.13-3.51 1.24-1.14 1.14-3.35 3.64-3.46 0.17 1.42 0.33 2.88 2.35 1.93-0.45-2.94-0.71-6.12-1-9.2 3.84 0.12-0.06-6 3.63-6 1.15 1.27-0.6 2.42 1.17 2.86-1.53 0.47-1 2.62-1.83 3.65 0.8 0 1.14 0.61 2.38 0l0.05-3.82c2.62 1 2-2.65 4.21-3.65-0.51 4.65-4.87 8.08-1.33 12.41 3.39-2.75 2-13.71 7.9-11.62 0.7-0.94 0.7-2.45 0.63-4-0.7 0.1-1.7 0.58-1.79-0.15 5.15-5.27 6.6-13.48 12-18.59-0.84 0.07-0.69-1.2-1.2-1.57 2.24-0.15 1.3-2.8 3-3.39 0.53 2.11-1.52 3.71 0.61 3.64 1.78-2.42 3.71-4.73 4.74-7.74 1.67-1 1.55 0.46 3-0.23-0.18-0.8-0.85-1-0.61-2.37 1.4-0.42 1.76 0.58 3.58-0.41 0-2.39 0.66-2 0-3.83 1.82 0.08 2.4 1.87 4.21 2 0.65-2 0.68-4.54 2.93-5.36v1.27c0.35-0.06 0.69-0.11 0.6 0.46-1.82-0.26-3.06 3.05-1.76 3.1 2.06-3.19 3.57-5.27 3.47-8.75 2.11 0.83 1.95-1.93 3.58-1.07a1.61 1.61 0 0 1 0.56-2.73c0.07 2.51 1.27 3.43 3.63 2.75-0.73 2-1.66 3.79-2.31 5.84 1.54-0.42 0.66 2.55 3 1-1.14-3.77 0.58-6.51 2.27-9.69-1.39-0.73-2.88-3.43-0.1-5.13 0 1.51-1 2.2-0.52 4 1.14 0.47 3.1-0.67 3.57-1.1-0.19-0.71-2.44-1.69-0.66-3-0.16 0.83 1.77 1.67 1.8 0.08 0-2-1.9-1.24-1.28-4.1 1.32-0.7 3.27 1 3.59-0.48-1.25 0-2.65-3.19-1.3-4.75 1.72 0.08 0.45 2 1.25 2.2 0.11-2.31 2.67 0.32 2.36-1.39-3.26-0.65-0.79-6.95 1.58-8.9a3.5 3.5 0 0 0-2.46-1.81c1.75-1 2.19-2.33 0.53-2.74 1.58-0.5 1.23-2.42 2.91-2.87 0.78 2.44-0.22 7.34-1.52 10.17 0.6-0.19 0.72 0.29 1.21 0.26 2.36-8.62 6.49-12.26 7.72-21.87 1.69 0 1.51-1.4 2.94-1.61 0.69 3.91-2.24 8.74-0.18 13l1.2-0.39c1-6.42 0.1-14.1 6-16.9 1.48-4.95 3.28-12.31 7.25-13.48-0.81-0.59-0.45-1.81 0.47-2.76-0.09 1.73 0.34 2.68 1.89 2a4 4 0 0 1 3.49-2.49c0-1.63 1-2.4-0.71-2.36 0 0.78 0.19 1.78-0.5 2.12-1.76-1.7 1-4.38 0.26-7.25 4.69 1.57 7.87-4.56 11.64-7.31 1.14 1.81 3.94-0.44 6-1.42 4.08 3.24 3.12 12.19 1 20.58-1.66-0.61-0.21-2.14-1.34-2.81-2.58 2-0.52 5-3.27 7.67 5 4.65-5.51 15.38-5.23 20.72-5.52 3.88-7.85 12.73-8.52 16.53 1-1 1.58-5.53 3.5-3.76-1.38 4.16-4.23 6.52-3.92 10.42-2.56 2.71-6.39 8.6-4.6 10.6-1.54 2.19-0.49-0.9-2.4 0.12-1.13 2.57 0 6.81-2.87 8.07-0.42-1.45 2.88-3.29 1.15-3.61-1.65 2-5.1 5.32-1.72 5.74-4.56 4.47-7.18 10.39-10.06 16.11 1.89 2.8 0.84 9.65-1.16 13.31a14.45 14.45 0 0 0 4.82 1.12 5.21 5.21 0 0 0 0.6-3.43c-1.53 0.4-2.33-0.22-2.41-1.84 2.23-2.6 4.48-5.19 5.37-8.81 1.13-0.5 1.33 0.32 2.41-0.1-1.19-2 0.8-2 1.18-4.26-0.48 0-1.19 0.37-1.21-0.26a4.47 4.47 0 0 0 2.39-1.41c-0.1 2.15-1.8 7.45 0.66 7.58 2.12-4.26 0.95-7.75 4.13-10.41 1.57-0.69 0.49 2.37 2.41 1.19 1.91-2 2-5.38 4.75-6.72-0.07 1.63-0.08 3.17 1.25 2.84 2.16-1.16 1.45-4.47 4.74-4.8 0-0.82-0.78-0.65-0.63-1.75a10 10 0 0 0 5.92-6.52c3.71-0.68 4.13-3.78 7.13-5-3.29 12.75-11.28 22-14 35.31-3.34 2.45-4.18 6.78-4.81 11.3-3.55 1.64-6.15 7.44-4.25 11.1 1-3.18 0.35-7.58 3-9.41-1.32 5.28-1.62 11.39-5.5 14.73 2.05 0.17 0.47 3.89-0.65 5.4-0.36-1.86 0.82-5.85-0.55-6.34-1.73 3.84 1 6.85-0.72 11.28-1.14 0.49-1.33-0.33-2.42 0.09-0.8 1.84-1.89 6.53-3.08 4.17 0 0.66-0.5 0.92-0.62 1.49 1 0.7 0.74 3.26 1.74 4A2.89 2.89 0 0 0 869 431c0.27-1.64-1.09-1.08-0.56-3.08 2.37 0.33 0.25-2.88 1.86-3.16 0.91 2.77-0.53 2.32-0.68 5.4 1 0.9 3.19-0.29 3.65-1.75 0.14 1.94-0.17 4.49 1.74 4-0.37-3.81-1.5-12 2.61-11.85a19.09 19.09 0 0 1 1.85-4.49 2.82 2.82 0 0 1-1.8-0.75 5 5 0 0 0 3-2.89c3.94-14.69 12.7-29.05 18.64-39.94 0.33 5.21-0.38 6.41-0.51 10a61.93 61.93 0 0 0 4.75-8.76c1-0.73 3.55-0.39 3.6-1.85-1.79-2.31 3.7-3.92 2.92-7.53 2.15-0.36 1.55-2.1 3.56-3.83 0.19 1.85-1.32 2.46-1.13 4.33 1.41-0.28 2.5 0.44 3.6-1.22 0.39 6.8-1.24 13.53-2.76 21.31-0.92 4.58-2.68 15.43-6 19.69 0.1 7.8-4.84 17.37-8.69 24.41-0.58 7-4.2 13.18-7.65 20.06-0.1-0.71-0.65-0.82-1.19-0.95-0.2 2.7-3.91 6.89-1.41 7.62l-3.68 1.1c-3.24 8.16-5.82 16.93-5.15 25.72-2.49 2.44-3.78 5.28-2.18 7.8-8 4.6-14.84 13.82-16.95 21.08 1.18-0.4 0.56-2.31 2-2.5 0.83 2.08-0.29 3.09 0.91 5-0.89 1.33-2.48 2.06-2.11 4.48-2.2 0.46-3.75 1.46-4.47 3.17 1.47 0.2 1.48 2.23 1.55 4.14-9.56 6.54-16.1 15.6-19.88 27.27-3.87 0.36-2.32 5.58-4.37 7.58 3.8 2.18-5 9.7 0.83 10.18-12.69 7.07-16.9 27.21-24.9 34.28-0.18 4.09-4 11.26-7.61 14.57-2.76 9-8.32 15.39-14 21.6-2.61 7.14-5.41 10-8 16.41-1.24 0.62-2.33-1.48-3.27 0.58 2.33 2.49-2.58 7.7-4.63 10.54 0.11-1 0.74-2.52-0.1-2.57-1.72 6.71-8.26 15.31-14.23 18.54 0.87-1.61 4.31-10.61 6.83-7.57 1.75-2.8 2.47-6.72 4-9.74-1.2 0.05-1.6 1-2.75 1.1 0.33-2.44 4.84-4.54 3.21-6.37-1.9 3-6.53 6.87-5.39 10.62-8.89 3-11.19 16.49-20.3 21.21-0.34 2.7-3.41 3.85-1.24 4.71-1.89-0.5-1.9 1.28-3 1.7 0.1-0.77 0.62-1.92-0.13-1.93-1.43 4.49-5.63 5.74-7.32 10 0.84-0.29 3.63-3.32 2.68-0.33-4.37 0.8-2.48 2.92-4.34 3.79 1.14-2.8-1.54 0.44-3.19-0.29-2.41 4-4.86 5.55-6.13 9.14 2.5-1.33 2.49 2.17 1.83 0.47l-3.42 0.35-3.5 4.24c-0.42 0.57-1.54 1.73-2.42 2.67l-2.79 2.94-11.72 12.18c1.48-2.66 6.51-5.4 3.43-5.46a60.31 60.31 0 0 0-11 11.15c0.64-1.09 1.15-2.13-0.61-1.43-1.56 3.31-4.41 3.62-6.42 5.92 0.56 0.08 1.77-0.31 1.19 0.57-5 1.53-4 4.67-6.55 6 0.45-1.06 0.17-1.64-1.41-1.38-9.94 6.77-19.1 11.84-26.2 18.58-2.56 0.44-5.54 0-7.16 4.19-1.77 0.2-1-0.92-2.61-0.81-1.1 1.51-3.81 3.48-6.89 5.12a34.27 34.27 0 0 1-4.72 2.1 17.15 17.15 0 0 1-4.3 0.75l-3.21 3c-14.86 4-29.43 8.52-44.1 11.11s-29.29 3.26-43-0.34c-6.54 0.38-12.17-1.79-17.84-3.93l-3.75 0.17a30.15 30.15 0 0 0-7.16-3.81 24.18 24.18 0 0 0-6.38-1.92c0.69-2.35-3-1.53-6-2.8-13.91-11.27-28.84-21.15-37.56-36.52l-2.16-1.27A164.42 164.42 0 0 1 439.27 723c-1.33-3.6-2.53-7.25-3.78-10.88s-2.2-7.48-3.26-11.25c-0.88-3.9-1.78-7.78-2.58-11.74-0.64-4-1.45-8-1.95-12.16a298.25 298.25 0 0 1-2-51.74c0.34-8.92 1.06-17.93 1.95-27s2-18.27 3.31-26.83c1.37-10.68 2.94-21 4.62-31.23 3.38-20.34 7.23-39.91 11.3-58.9s8.36-37.45 12.58-55.21c-1.14-0.28-1-2.47-0.2-3.62 0.6 0.84-0.12 2 0.72 1.72 2-2.72-0.73-2.16-0.47-4.18l1.94-1.46c0.58-5.41 1.32-9.9 2-14.32 0.33-2.19 0.65-4.37 1-6.64 0.16-1.14 0.28-2.26 0.41-3.43l0.18-1.78a3.3 3.3 0 0 0 0-0.39v-0.1c0-0.06 0-0.15-0.07-0.14a9.56 9.56 0 0 0 1.14 0.19l-1.42-0.26c0.61 0 0.34-0.29 0-0.3s-0.63 0.11 0-0.32c-1 0.36-1.54 1.13 0.21-0.5-1.74 1.58 0.86-1-1.13 1 1.09-1.16 0.81-1 0.56-0.68s-0.44 0.56 0.47-0.77c-1 1.3-0.75 1-0.67 0.7s0.08-0.7-0.32 0.58l0.47-1.75c-0.37 1.07-0.27 0.62-0.34 0.25s-0.22-0.64-0.22 0.65c-0.26-2.82 0 1-0.39-1.89l0.19 1.49c-0.43-2-0.29-0.61-0.38-0.69s-0.46-0.66-0.77-0.92a0.73 0.73 0 0 0-0.2-0.13h-0.07l-0.32 0.22a3.34 3.34 0 0 0-1.59 2c-10.79 4.21-21.07 12.76-33.32 20.08-0.09 0.55 0.33 0.7 0.36 1.16-7.13 4-14.63 8.54-19.85 15.79h-3.41c-1.58 3.75-4.66 5.19-7.09 6.48-0.09 0.78 1 0.5 1 1.13-1.27 1.64-4.67 1-5.51 3.13a58.17 58.17 0 0 1-8.75 9.65c-3.2 3-6.71 5.68-10.22 8.48 1.29-1.37 1.15 0.1 1.67 1-9.07 6.08-15.63 14.91-22.83 23.16-1.44 0.51-1.25-0.89-2.93-0.07 0.48 3.18-2.28 3.47-2 6.47-4.08 0.41-4.25 4.26-7.78 5.21-1.1 4.76-8.06 9.84-11.43 14.81-3.09-1.81-5.2 7.72-9.47 9.12-0.42 1.8 1.17 1 1.2 2.2-1.21 0.88-3.92 1-3.52 4.64-4.88 2.73-7.58 7.25-10.5 11.57-2.21 1.08-0.46-3.21-3-1.69-1.52 5.67-3.06 9.61-6.79 14.57-1.33-1 0.71-2.09 0.49-4-1.8 1-1.17-1.39-3-0.39-0.24 3.06-1.49 6.75-3.93 7.52 0.37-0.83 2.66-3.26 1.08-3.51-1.86 2.51-4 4.82-4.49 8.35-1.4 0.7-1.32-0.76-3 0.27-0.81 2.65-2.87 3.45-1.54 6.24-4.47 1.86-4.88 6.67-7.31 10-0.1 1.74 3.28-1.65 2.45 1.14-2.31 2-2.85-2-4.15 0.7 1.07 0.49 2.35 3.31-0.39 4-0.15-0.91 0.08-2.41-0.72-2.34a75 75 0 0 0-11.59 16.82c-0.89-1.51 3-2.65 1-2.93-2.82 3-8.76 9.37-7 11.53-1.17 0.21-1.1 1.27-1.67 1.89-0.12-1-0.07-2.22-1.3-1.49 0.92 2.25-1.85 2-0.91 4.23 0.83-0.64 1.41-1.47 2.25-2.1 0 3.87-4.49 0.95-4.45 4.85 1.14 0.22 1.81-2.61 2.34-0.84-3.52 4.27-5.93 9.74-10.27 14.86 0-3.78 5.93-6.32 4.08-9.36a5.28 5.28 0 0 0 4.01-4.62c-2.26 0.29-1.66 2.51-3.36 3.17-0.91-1.15 1.33-2.93-0.19-2.54-2.88 3.31-5.32 6.93-6.33 11.49a3.12 3.12 0 0 0-1.31-1.47c-0.08 1.36-1.49 1.84-1.56 3.2 0.21 0.85 1 0.71 1.32 1.47a9.17 9.17 0 0 0-3.87 4.09c0.7-0.47 2.17 1.09 0.75 1.69-2.08-3-2.3 3-4.5 3.69-1.05 0-0.21-3.05-1.44-2.75 0.71 3.08-1.82 4-2.46 6.23 2.6-0.89 0.11 3.64-0.84 4.28 0.47-1.93 0.13-3.8-2.08-3.14-0.23 1 1 3-0.3 3.41-2.28-3.58-6.59 5.28-8.3 7.9 0.71-0.2 1.39-0.35 1.28 0.83-2.8 0.79-0.57 1-1.56 2.61l-2.91 1.16c0.39-2.63-1.42-1.58-2-2.5 2.56-2.5 3.21-2.46 3.65-6.11 3.7-0.73 1.7-1.9 5.7-3.58-1.62 0.14-1.14-2.84 0.24-4.07 0.18 0.92 0 2.44 0.8 2.33 0-1.25 2.37 0.22 2.22-2.18-0.81-1.34-2.51-1.24-2.71-3.56 2.08-0.77 1 3.73 3.77 1.83-0.78-3.72 4.76-3.34 3.58-7.32-1.48 0.22-3.52 1.36-3.66-0.58 2.55-0.41 2.54-0.91 4.24 0.35 0.09-6 4.56-9.1 7.36-13.3-0.47 0-0.72-0.28-0.69-1.06-1.15 0.44-0.6 2-2.23 2.15 0.08-3.4 3.63-1.72 4.53-3.66-1-0.85-1.73-1.58-0.24-3.2-0.29 3.61 1.43-0.08 3.61 0 0.33-3.88 8.33-11.43 6.16-15.3 1.79-1.39 1.48 0.49 2.42 0.44 1.72-3.09 4.72-5.3 5.44-9.07-0.08 1.51 0.29 2.34 1.33 2.14 0.46-1.31 1.54-2.18 0.95-4.23-0.88 0.2-2.16 1-2.38 0.19 1.37-0.68 1-2.6 2.81-2.93q-0.22 3.14 2.5 1.73c-0.21-5.11 7.53-6.24 5.42-10.88 0.83-1 1.43-1.23 2.34-0.78-1.06-1.67 2.08-3.31 0.45-3.36-0.69 0.32-1.29 1.56-1.77 0.57 1.78-2.42 5-3.83 6.91-6.11-0.78 0.25-0.59-0.94-1.24-0.89-1.11 0.21-1.27 1.13-2.33 1.4 2.07-6.76 9.81-9.32 10.76-16.88 2.57-1.24-0.45 1.41 1.21 0.9 3.48-2.57 4.87-6.71 8.1-9.44-0.34-5.56 9-6.7 6.95-11.52 3 0.74 2.48-4.65 6.49-5-0.49-3.1 1.86-4 2.95-5.82 2.32 1.72 6.25-4.75 5.36-8.3 1.88-1.19 1.44 0.62 2.38 0.66 0-1.9 3-1.35 3-3.25a1.66 1.66 0 0 1 0-3.13c0.32 0.82-0.72 3.41 0.57 3 2.28-0.87 1.15-4.55 2.45-6.21 0.86 1.24 1.44 0.61 3-0.08-0.09-3.23 2.05-4.63 1.93-7.92-0.87 0.91-1.47 1-1.77-0.21 0.46-0.25 1.16-0.29 1.2-0.9-0.35-0.8-2.28 0.43-2.35-0.71 4.32-2.27 1.65-3.91 6.7-5.82 0 1.46-4 3.93-0.09 3.13 0.42 1.9-3.61 3.24-1.9 4.12 1.3-1 1.51-3 4.22-2.77-0.54-2.6 2.07-2.48 1.92-4.75-1.61-0.11-1.23 1.5-2.42 1.76 0.46-1.77-1.19-0.95-1.73-1.49a3.21 3.21 0 0 1 2.49-3.64c0.06 0.91-0.29 2.36 0.51 2.37 0-0.83 1.05-0.8 1.23-1.5 0.53-2-1.59-0.86-1.07-2.85 4.58-2.35 6.43-9.38 12.22-8.53 0.22-0.76 2.53-2.76 0.77-3.19-1.32-0.24-2.06 3.19-3 1.15 2.6-1.29 6-8.69 7.92-4.47a2.49 2.49 0 0 0 1.28-1.42c0.56-2-1.57-0.91-1-2.87 5.28-5.62 13.21-11.92 16.14-17.43a55.75 55.75 0 0 0 9.81-8 117.63 117.63 0 0 1 9-8.58c-0.43-0.11-1.15 0.06-1.09-0.52 3.22-0.71 6.22-3.26 9.23-6.1s6-6 9.15-7.91c0-0.84-0.79-1-0.86-1.76a37.77 37.77 0 0 0 6.29-4.18 28 28 0 0 1 6.23-4.06c-0.68-0.11-1.32-0.26-0.92-1.21 3.33 0.27 6.67-1.31 6.05-4.15 3-0.37 5-2.17 7-4s4-3.48 6.89-3.76c-1.27-1.41 2.68-3.08 2.44-0.71-1.45-1-2.91 1.9-1.75 2.54 2.19-0.72 1.93 0.55 3.65 1.21 2.42-2.64-0.08-4.91-0.81-5.75a15.75 15.75 0 0 0 4.79-2.83c1.46-1.14 2.85-2.3 4.31-3.39 1 0.15 1 0.9 1.91 1.1a18.86 18.86 0 0 1 5.48-4.67l1.55-0.89c0.22-0.12 0.59-0.32 0.71-0.37l0.3-0.11c0.42-0.12 0.84-0.21 1.26-0.29 1.7-0.31 3.22-0.3 4.22-1.87 0.84 1.1 0.88 0.66 1.43 1.69a8.44 8.44 0 0 1 0-1.59 30.07 30.07 0 0 0 6.7-0.79c2.17-0.31 4.45-0.42 6.27 0.67 1.16-2.08 1.92-0.67 1.46 1.43 2.21-2.76 1.4 0.17 2.24-0.09a2.55 2.55 0 0 1 2.78-0.66 22.29 22.29 0 0 0 2.92 0.91 7.07 7.07 0 0 0-1.6 1.94c1.73-1.12 2-0.47 2 0.15s0 1.21 1.5 0.23a11.22 11.22 0 0 1-1.73 2c0.12 0.27 1.06-0.2 2-1-1 1.66 1.49-0.43-1.34 2 1.32 0 0.07 1.75 2.23 1.19a3.53 3.53 0 0 0-1.57 1c1.29-0.15-0.52 1.59 1.57 1-0.35-0.08-2.54 1.8-1.62 1.38 0.76 0.11 1.61-1.18 2.37-1-2.09 2.11-2 2.81-0.36 3.09-2.16 1.35 0.46 1.06 0.34 2.25-0.08 0.75-2.71 2.6-0.15 2.29-1.82 1.72-1.58 2.71-1.3 3.91s0.58 2.48-1 3.59a3.62 3.62 0 0 1 1.57 0c-0.26 0.41-0.55 0.07-1.65 0.23a1.76 1.76 0 0 1 0.71 0.75 5.87 5.87 0 0 1 0 2.29 56 56 0 0 1-1.19 6.46c-1 4.57-2.29 9.55-2.2 14-0.31-0.36-0.69-0.35-1.22 0.17 0.8 6-1.64 11.14-3.55 16.46 0.27 7.41-0.68 16.13-5.61 20.5 0.61 1.62 2.07 0.12 2.64 1.89-2.44 1.37-0.26 4.23-1.66 5.95-0.59-0.9 0.17-2.13-0.67-1.83-0.06 2.07-0.42 2.68 0.84 4-5.35 12-4.16 26.35-9.9 38.72 0.64 1 1.15 2.56 2.4 1.3L478.92 441c2.29-10.41 4.48-20.66 6.44-30.66l1.44-7.46 1.25-6.91c0.25-1.56 0.43-2.93 0.63-4.39 0.67-5.75 1.3-11.55 0.14-17.25-0.6-2.8-1.93-5.64-4.39-7.26a13.85 13.85 0 0 0-4-1.65 33.93 33.93 0 0 0-4.22-1 40.68 40.68 0 0 0-17.52 1.11c-1.48 0.38-2.94 0.86-4.42 1.36l-2.21 0.82-0.56 0.21-0.31 0.13-0.65 0.33-2.65 1.36c-3.56 1.68-7.16 3.85-10.8 5.82-3.62 2.26-7.3 4.35-11 6.86-14.65 9.58-29.44 21.4-44.09 34.14-14.58 12.92-29 26.82-43.26 41.49-4.28 4.63-9.5 11.5-13.18 13.67-0.92 3.72-4.06 5.54-5.1 9.18-0.88 0.53-3.06 0-3 1.29 1.61 1.61-3.65 4.51-4.9 5.52-3.07 2.44-3.82 8.16-6.11 7.74 0.74-1.3 1.2-2.86 2.44-3.73-5.43 0-4.92 10.73-10.87 11.56-0.6 6.77-11.4 11.34-9.53 15.93-1.44 0.14-1.29 1.52-3 1.47 0.87 1.93-2.52 6.38-4.73 4.56-2.59 3.9-3.38 9.15-7.55 11.87-1-0.07 0-3.05-1.26-2.83-0.05 1-1.11 3.67 0.67 3-2.07 5.33-7.89 7.9-9.17 13.82-1.22-1.2-3.21 1.8-1.69 3.12-1.16 0.57-1.2-0.49-1.83-0.7-0.84 2.5-4.48 4.16-2.72 6.72-1.49 1.42-2.65 3.06-4 4.58-5 0.2-8.19 12.31-14.82 15.54-0.67 7.53-9.83 9.26-9.76 17.29-2.29-0.1-1 2.18-2.86 2.37 0.5-4.42 4.39-7.91 6.4-12.85-0.63-0.64-1.08-1.59-1.92-1.92a4.17 4.17 0 0 0-1.54 4.49c-2.37 1.57-0.15-4-3.1-1.5 1.61 1-2.77 4.87 0.33 5.15-2.76 1.37-1.73 4.36-3.9 4.73 2.5 0 1.13 1.66 2.6 3-3.49 1.57-3.57 4.2-3.74 6.68-1.56 1.07-1.27-0.83-2.43-0.4-1.12 3.12-4.4 8.07-6.6 8.47 2-1.74 2-4.78 3.71-6.72-1.82 0.76-1.82-1.39-4.2 0.27 1.37 0.86-0.16 2 0.29 3.87-2-2.39-9.8 6.82-8.86 10.09-1.83 1.53-0.61-1.92-2.44-0.37 0.05 0.64-0.42 1-0.48 1.52 1.17 1.43 1.28 3 3.77 1.84-1.32 1-1.88 2.43-2.71 3.72 1.75 0.23 2.82-2.92 3.5-1.38-2.57 0.57-1.07 3.76-3.87 4.19-1-1.89 0.4-3.3-1-4.28-2 1-1.45 3.54-3.23 4.63-0.2-1.64-2.36 0-2.55-1.64 0.57-1.34 1.61-5-0.39-4.53-1.12 0.92 0.45 3.55-0.84 4.35-0.43-2.57-3.42 2.07-3.09-0.76-1.3 1.55-2.39 5.14 0.91 3.64-1.41-2.25 1-0.4 2.35-0.95 0.08-0.55-0.1-1.28 0.47-1.52 0 1.27 0.78 1.16 0.81 2.34-1.22 2-2-0.43-4.16 1-0.1 1-0.72 1.57-0.35 2.82 1.14 0.17 1.79-2.72 2.34-0.94-2.64 2.57-3.19 6.48-6.48 8.65 1.39-4.11 1-6.11 2.69-10.47-0.59 0.24-0.74-0.24-1.22-0.16-1.88 3.89-2.75 8.4-5 12.07-1.12 0.67-1.23-0.39-1.86-0.57 0.06 0.64-0.4 1-0.47 1.54 0.1 0.85 1.08 0.16 1.29 0.81-0.71 1.74-2 5.1-3.83 4.27-1 3.22-0.7 10.46-3.83 10.35 0.4-1 0.5-4.45 1.5-9.38-2.22 2.87-1.64 7.48-5.12 9.56 2.22-1.31 1.64 2.21 3.23 2-0.91 0.44-0.29 1.85-1.61 2 0.58-2.28-0.68-3.87-2.78-3.53 0.69 3.45-1 3.59-3.23 4.07-0.59 7-4.6 8.61-6.4 14.23-2.1-1.77 2.33-5.6-0.17-7.37-2.8 2.73-1.76 7.8-6.93 9.1-0.27 3.47-2.37 5.83-3.94 8.5 0.15 1.54 1.21 1.48 1 3.64-0.68 0.4-1.66 0.61-1.67 1.41 1.59-0.81 2.1 0.12 1.36 1.44-2.72 1.32-1.3-2.02-1.53-4z" fill="#231815" p-id="9584"></path></svg>