<svg xmlns="http://www.w3.org/2000/svg" width="800" height="480" viewBox="0 0 800 480">
  <defs>
    <linearGradient id="bg" x1="0" y1="0" x2="0" y2="1">
      <stop offset="0%" stop-color="#f4f2ef"/>
      <stop offset="100%" stop-color="#fafaf8"/>
    </linearGradient>
    <linearGradient id="header" x1="0" y1="0" x2="0" y2="1">
      <stop offset="0%" stop-color="#2a2824"/>
      <stop offset="100%" stop-color="#1e1c19"/>
    </linearGradient>
    <filter id="shadow" x="-5%" y="-5%" width="115%" height="120%">
      <feDropShadow dx="0" dy="4" stdDeviation="12" flood-opacity="0.12"/>
    </filter>
  </defs>
  
  <!-- Background -->
  <rect width="800" height="480" fill="url(#bg)" rx="16"/>
  
  <!-- Title area -->
  <rect x="20" y="20" width="28" height="28" rx="8" fill="#1e1c19"/>
  <text x="34" y="39" fill="#fafaf8" font-size="14" font-weight="700" text-anchor="middle" font-family="-apple-system,BlinkMacSystemFont,sans-serif">M</text>
  <text x="58" y="40" fill="#1e1c19" font-size="18" font-weight="700" font-family="-apple-system,BlinkMacSystemFont,sans-serif">MDAnnot</text>
  
  <text x="68" y="72" fill="#5a5650" font-size="13" font-family="-apple-system,BlinkMacSystemFont,sans-serif">在 Markdown 上留下你的阅读痕迹</text>
  
  <!-- Editor mockup -->
  <rect x="20" y="90" width="480" height="370" rx="10" fill="#fff" stroke="#e8e6e1" stroke-width="1" filter="url(#shadow)"/>
  
  <!-- Editor header -->
  <rect x="20" y="90" width="480" height="36" rx="10" fill="#fafaf8" stroke="#e8e6e1" stroke-width="1"/>
  <rect x="20" y="116" width="480" height="10" fill="#fafaf8"/>
  <circle cx="44" cy="108" r="5" fill="#e07a7a"/>
  <circle cx="60" cy="108" r="5" fill="#f29e6d"/>
  <circle cx="76" cy="108" r="5" fill="#4cb899"/>
  <text x="92" y="112" fill="#8a8680" font-size="11" font-family="-apple-system,BlinkMacSystemFont,sans-serif">阅读笔记.md — Obsidian</text>
  
  <!-- Document content -->
  <text x="36" y="150" fill="#5a5650" font-size="13" font-weight="600" font-family="-apple-system,BlinkMacSystemFont,sans-serif"># 阅读笔记</text>
  
  <text x="36" y="180" fill="#1e1c19" font-size="13" font-family="-apple-system,BlinkMacSystemFont,sans-serif">核心概念是</text>
  <rect x="120" y="166" width="108" height="18" rx="2" fill="#90EE90" opacity="0.7"/>
  <text x="123" y="180" fill="#1e1c19" font-size="13" font-family="-apple-system,BlinkMacSystemFont,sans-serif">语义化版本控制</text>
  <text x="228" y="180" fill="#1e1c19" font-size="13" font-family="-apple-system,BlinkMacSystemFont,sans-serif">，即</text>
  
  <text x="36" y="205" fill="#1e1c19" font-size="13" font-family="-apple-system,BlinkMacSystemFont,sans-serif">通过版本号</text>
  <text x="120" y="205" fill="#1e1c19" font-size="13" text-decoration="underline wavy #4169E1" font-family="-apple-system,BlinkMacSystemFont,sans-serif">传递</text>
  <text x="156" y="205" fill="#1e1c19" font-size="13" font-family="-apple-system,BlinkMacSystemFont,sans-serif">兼容性信息。</text>
  
  <text x="36" y="230" fill="#1e1c19" font-size="13" font-family="-apple-system,BlinkMacSystemFont,sans-serif">主版本号变更表示</text>
  <rect x="164" y="216" width="100" height="18" rx="2" fill="#90EE90" opacity="0.7"/>
  <text x="167" y="230" fill="#1e1c19" font-size="13" font-family="-apple-system,BlinkMacSystemFont,sans-serif">不兼容的 API</text>
  <text x="264" y="230" fill="#1e1c19" font-size="13" font-family="-apple-system,BlinkMacSystemFont,sans-serif">修改。</text>
  
  <text x="36" y="260" fill="#1e1c19" font-size="13" font-family="-apple-system,BlinkMacSystemFont,sans-serif">模块间通过</text>
  <rect x="120" y="246" width="64" height="18" rx="2" fill="#FFFFAA" opacity="0.7"/>
  <text x="123" y="260" fill="#1e1c19" font-size="13" font-family="-apple-system,BlinkMacSystemFont,sans-serif">接口契约</text>
  <text x="184" y="260" fill="#1e1c19" font-size="13" font-family="-apple-system,BlinkMacSystemFont,sans-serif">通信。</text>
  
  <!-- Separator -->
  <line x1="36" y1="280" x2="480" y2="280" stroke="#e8e6e1" stroke-width="1"/>
  
  <!-- Legend -->
  <rect x="36" y="292" width="10" height="10" rx="2" fill="#90EE90"/>
  <text x="52" y="301" fill="#5a5650" font-size="11" font-family="-apple-system,BlinkMacSystemFont,sans-serif">高亮</text>
  <text x="92" y="301" fill="#5a5650" font-size="14" font-family="-apple-system,BlinkMacSystemFont,sans-serif">〰️</text>
  <text x="106" y="301" fill="#5a5650" font-size="11" font-family="-apple-system,BlinkMacSystemFont,sans-serif">划线</text>
  <rect x="152" y="292" width="10" height="10" rx="2" fill="#FFFFAA"/>
  <text x="168" y="301" fill="#5a5650" font-size="11" font-family="-apple-system,BlinkMacSystemFont,sans-serif">评论</text>
  
  <!-- Toolbar -->
  <rect x="140" y="140" width="104" height="34" rx="8" fill="#fff" stroke="#e0ddd8" stroke-width="1" filter="url(#shadow)"/>
  <rect x="148" y="148" width="28" height="18" rx="5" fill="rgba(76,184,153,0.12)"/>
  <text x="162" y="162" fill="#4cb899" font-size="13" text-anchor="middle" font-family="-apple-system,BlinkMacSystemFont,sans-serif">🖌</text>
  <text x="186" y="162" fill="#8a8680" font-size="13" text-anchor="middle" font-family="-apple-system,BlinkMacSystemFont,sans-serif">〰️</text>
  <text x="212" y="162" fill="#8a8680" font-size="13" text-anchor="middle" font-family="-apple-system,BlinkMacSystemFont,sans-serif">💬</text>
  
  <!-- Side panel mockup -->
  <rect x="515" y="90" width="265" height="370" rx="10" fill="#fafaf8" stroke="#e8e6e1" stroke-width="1" filter="url(#shadow)"/>
  
  <!-- Panel header -->
  <text x="533" y="118" fill="#1e1c19" font-size="14" font-weight="600" font-family="-apple-system,BlinkMacSystemFont,sans-serif">批注列表</text>
  
  <!-- Controls -->
  <rect x="531" y="130" width="110" height="22" rx="4" fill="#fff" stroke="#e0ddd8" stroke-width="1"/>
  <text x="539" y="145" fill="#1e1c19" font-size="10" font-family="-apple-system,BlinkMacSystemFont,sans-serif">全部</text>
  <rect x="650" y="130" width="110" height="22" rx="4" fill="#fff" stroke="#e0ddd8" stroke-width="1"/>
  <text x="658" y="145" fill="#1e1c19" font-size="10" font-family="-apple-system,BlinkMacSystemFont,sans-serif">位置</text>
  
  <!-- Item 1: Highlight -->
  <rect x="531" y="162" width="237" height="52" rx="5" fill="#fff" stroke="#e8e6e1" stroke-width="1"/>
  <rect x="531" y="162" width="3" height="52" rx="0" fill="#28a745"/>
  <text x="542" y="180" fill="#8a8680" font-size="10" font-family="-apple-system,BlinkMacSystemFont,sans-serif">🖌 高亮</text>
  <!-- Status bar - all green -->
  <rect x="660" y="174" width="3" height="8" rx="1" fill="#28a745"/>
  <rect x="665" y="174" width="3" height="8" rx="1" fill="#28a745"/>
  <rect x="670" y="174" width="3" height="8" rx="1" fill="#28a745"/>
  <rect x="675" y="174" width="3" height="8" rx="1" fill="#28a745"/>
  <rect x="680" y="174" width="3" height="8" rx="1" fill="#28a745"/>
  <rect x="685" y="174" width="3" height="8" rx="1" fill="#28a745"/>
  <rect x="690" y="174" width="3" height="8" rx="1" fill="#28a745"/>
  <rect x="695" y="174" width="3" height="8" rx="1" fill="#28a745"/>
  <rect x="700" y="174" width="3" height="8" rx="1" fill="#28a745"/>
  <rect x="705" y="174" width="3" height="8" rx="1" fill="#28a745"/>
  
  <text x="542" y="198" fill="#1e1c19" font-size="11" font-family="-apple-system,BlinkMacSystemFont,sans-serif">高内聚低耦合</text>
  <!-- Badge -->
  <rect x="542" y="202" width="24" height="12" rx="3" fill="rgba(40,167,69,0.12)"/>
  <text x="548" y="211" fill="#28a745" font-size="8" font-family="-apple-system,BlinkMacSystemFont,sans-serif">精确</text>
  
  <!-- Item 2: Underline -->
  <rect x="531" y="220" width="237" height="52" rx="5" fill="#fff" stroke="#e8e6e1" stroke-width="1"/>
  <rect x="531" y="220" width="3" height="52" rx="0" fill="#ffc107"/>
  <text x="542" y="238" fill="#8a8680" font-size="10" font-family="-apple-system,BlinkMacSystemFont,sans-serif">〰️ 划线</text>
  <!-- Status bar - fuzzy gradient -->
  <rect x="660" y="232" width="3" height="8" rx="1" fill="#28a745"/>
  <rect x="665" y="232" width="3" height="8" rx="1" fill="#28a745"/>
  <rect x="670" y="232" width="3" height="8" rx="1" fill="#28a745"/>
  <rect x="675" y="232" width="3" height="8" rx="1" fill="#28a745"/>
  <rect x="680" y="232" width="3" height="8" rx="1" fill="#28a745"/>
  <rect x="685" y="232" width="3" height="8" rx="1" fill="#28a745"/>
  <rect x="690" y="232" width="3" height="8" rx="1" fill="#8BC34A"/>
  <rect x="695" y="232" width="3" height="8" rx="1" fill="#FFEB3B"/>
  <rect x="700" y="232" width="3" height="8" rx="1" fill="#FF9800"/>
  <rect x="705" y="232" width="3" height="8" rx="1" fill="#F44336"/>
  
  <text x="542" y="256" fill="#1e1c19" font-size="11" font-family="-apple-system,BlinkMacSystemFont,sans-serif">持续演进</text>
  <rect x="542" y="260" width="24" height="12" rx="3" fill="rgba(255,193,7,0.12)"/>
  <text x="548" y="269" fill="#856404" font-size="8" font-family="-apple-system,BlinkMacSystemFont,sans-serif">模糊</text>
  
  <!-- Item 3: Comment -->
  <rect x="531" y="278" width="237" height="66" rx="5" fill="#fafaf8" stroke="#e8e6e1" stroke-width="1"/>
  <rect x="531" y="278" width="3" height="66" rx="0" fill="#28a745"/>
  <text x="542" y="296" fill="#8a8680" font-size="10" font-family="-apple-system,BlinkMacSystemFont,sans-serif">💬 评论</text>
  <!-- Status bar - all green -->
  <rect x="660" y="290" width="3" height="8" rx="1" fill="#28a745"/>
  <rect x="665" y="290" width="3" height="8" rx="1" fill="#28a745"/>
  <rect x="670" y="290" width="3" height="8" rx="1" fill="#28a745"/>
  <rect x="675" y="290" width="3" height="8" rx="1" fill="#28a745"/>
  <rect x="680" y="290" width="3" height="8" rx="1" fill="#28a745"/>
  <rect x="685" y="290" width="3" height="8" rx="1" fill="#28a745"/>
  <rect x="690" y="290" width="3" height="8" rx="1" fill="#28a745"/>
  <rect x="695" y="290" width="3" height="8" rx="1" fill="#28a745"/>
  <rect x="700" y="290" width="3" height="8" rx="1" fill="#28a745"/>
  <rect x="705" y="290" width="3" height="8" rx="1" fill="#28a745"/>
  
  <text x="542" y="314" fill="#1e1c19" font-size="11" font-family="-apple-system,BlinkMacSystemFont,sans-serif">接口契约的定义方式</text>
  <text x="542" y="330" fill="#8a8680" font-size="10" font-family="-apple-system,BlinkMacSystemFont,sans-serif">💬 通过接口而非实现编程</text>
  <rect x="542" y="336" width="24" height="12" rx="3" fill="rgba(40,167,69,0.12)"/>
  <text x="548" y="345" fill="#28a745" font-size="8" font-family="-apple-system,BlinkMacSystemFont,sans-serif">精确</text>
  
  <!-- Export button -->
  <rect x="531" y="360" width="237" height="30" rx="5" fill="#1e1c19"/>
  <text x="649" y="380" fill="#fafaf8" font-size="11" font-weight="500" text-anchor="middle" font-family="-apple-system,BlinkMacSystemFont,sans-serif">📥 导出批注</text>
  
  <!-- Feature badges -->
  <rect x="20" y="470" width="160" height="24" rx="12" fill="rgba(76,184,153,0.12)"/>
  <circle cx="36" cy="482" r="4" fill="#4cb899"/>
  <text x="46" y="486" fill="#4cb899" font-size="11" font-weight="500" font-family="-apple-system,BlinkMacSystemFont,sans-serif">Obsidian 插件</text>
  
  <rect x="190" y="470" width="130" height="24" rx="12" fill="rgba(242,158,109,0.12)"/>
  <circle cx="206" cy="482" r="4" fill="#f29e6d"/>
  <text x="216" y="486" fill="#f29e6d" font-size="11" font-weight="500" font-family="-apple-system,BlinkMacSystemFont,sans-serif">阅读批注</text>
  
  <rect x="330" y="470" width="92" height="24" rx="12" fill="rgba(90,86,80,0.1)"/>
  <text x="340" y="486" fill="#5a5650" font-size="11" font-weight="500" font-family="-apple-system,BlinkMacSystemFont,sans-serif">零外部依赖</text>
</svg>
